<?xml version="1.0" standalone="no"?>
<!DOCTYPE svg PUBLIC "-//W3C//DTD SVG 20010904//EN"
 "http://www.w3.org/TR/2001/REC-SVG-20010904/DTD/svg10.dtd">
<svg version="1.0" xmlns="http://www.w3.org/2000/svg"
 width="920.000000pt" height="600.000000pt" viewBox="0 0 920.000000 600.000000"
 preserveAspectRatio="xMidYMid meet">

<g transform="translate(0.000000,600.000000) scale(0.100000,-0.100000)"
fill="#000000" stroke="none">
<path d="M4439 5996 c-2 -2 -44 -6 -93 -10 -411 -29 -858 -167 -1223 -376
-869 -499 -1428 -1373 -1512 -2365 -19 -228 0 -579 44 -810 114 -590 400
-1128 827 -1555 505 -504 1155 -806 1873 -869 105 -9 458 -7 535 4 25 3 94 13
153 21 820 114 1586 600 2051 1302 268 405 419 812 482 1297 19 148 26 463 13
610 -77 908 -555 1725 -1309 2237 -400 272 -849 439 -1345 498 -86 11 -488 24
-496 16z m-1695 -1342 c234 -105 277 -135 297 -208 6 -23 8 -60 5 -84 -5 -39
-673 -1547 -699 -1580 -17 -22 -64 -42 -121 -53 -83 -15 -176 8 -305 77 -175
93 -217 121 -231 154 -18 43 -8 151 23 235 56 158 605 1408 644 1466 36 55 88
89 135 89 26 0 105 -30 252 -96z m4046 44 c24 -13 56 -39 71 -58 38 -48 679
-1554 679 -1595 0 -46 -46 -130 -93 -171 -60 -51 -132 -85 -297 -139 -174 -56
-191 -55 -265 28 -60 66 -106 162 -388 807 -307 703 -328 754 -334 814 -6 60
15 119 51 139 11 6 118 53 236 104 237 102 266 108 340 71z m-1649 -238 c105
-12 238 -49 340 -95 105 -48 200 -66 372 -72 l148 -6 23 -31 c31 -41 53 -84
152 -308 131 -296 509 -1217 502 -1223 -2 -2 -85 -53 -186 -114 l-182 -112
-383 339 c-210 186 -470 416 -577 512 -107 95 -209 179 -227 186 -18 8 -59 14
-92 14 -119 0 -145 -12 -419 -183 -292 -183 -341 -206 -428 -207 -87 0 -138
21 -234 98 -130 103 -166 195 -125 313 55 155 448 529 813 772 91 61 201 103
304 116 90 12 103 12 199 1z m-816 -35 c28 -8 59 -21 70 -29 22 -17 47 10
-482 -506 -93 -91 -184 -187 -202 -215 l-33 -50 4 -112 c4 -105 6 -116 42
-188 51 -104 126 -177 256 -250 95 -54 108 -59 179 -63 97 -6 176 14 301 74
115 55 227 129 340 224 47 39 98 78 114 87 34 18 96 19 126 3 21 -11 366 -309
912 -786 152 -133 285 -247 296 -253 12 -6 30 -11 41 -11 38 0 26 -38 -38
-123 -55 -74 -115 -102 -221 -102 -65 0 -96 5 -130 21 l-45 21 3 -53 c9 -136
-130 -285 -280 -301 -48 -5 -132 9 -190 32 -15 6 -18 1 -18 -26 -1 -67 -79
-188 -157 -242 -65 -45 -166 -53 -284 -22 -25 6 -26 5 -32 -47 -10 -102 -70
-192 -153 -234 -60 -29 -184 -27 -247 5 -26 14 -52 30 -58 37 -7 9 34 52 153
158 90 81 177 166 195 189 88 116 66 284 -54 417 -72 80 -108 95 -231 95 -66
0 -102 4 -102 11 0 30 -33 115 -61 157 -65 98 -172 143 -325 135 l-92 -5 -7
36 c-12 62 -57 141 -108 187 -64 57 -130 77 -238 72 l-79 -3 0 40 c0 56 -40
131 -103 194 -77 78 -116 95 -212 96 -141 0 -149 -5 -374 -211 -110 -101 -204
-184 -208 -184 -4 0 -27 17 -50 38 l-43 37 295 675 c162 371 310 711 330 755
l35 80 115 -3 c133 -4 268 18 441 72 295 93 462 113 609 71z m-1129 -1489
c126 -59 183 -163 141 -258 -7 -15 -118 -123 -247 -240 l-234 -213 -71 0
c-128 0 -218 71 -231 182 -4 28 -4 62 0 76 5 20 299 293 479 445 48 39 91 42
163 8z m430 -315 c50 -23 120 -84 140 -122 16 -32 18 -96 5 -132 -8 -22 -439
-428 -478 -450 -7 -5 -42 -8 -78 -8 -141 0 -235 89 -235 224 0 48 11 59 295
312 217 192 220 195 265 195 25 0 64 -9 86 -19z m478 -292 c60 -28 126 -86
142 -126 17 -39 17 -99 1 -135 -7 -14 -116 -121 -242 -236 -256 -233 -260
-235 -369 -212 -100 21 -163 88 -174 187 -2 23 -2 53 2 66 5 20 309 303 479
445 47 39 95 42 161 11z m489 -332 c71 -47 108 -95 114 -150 9 -77 -8 -99
-255 -324 -210 -192 -234 -211 -274 -216 -91 -12 -191 28 -234 93 -20 30 -28
57 -32 108 l-4 68 93 86 c52 47 168 152 259 232 l165 147 57 -3 c45 -3 68 -12
111 -41z"/>
</g>
</svg>
